<svg width="16" height="17" viewBox="0 0 16 17" fill="none" xmlns="http://www.w3.org/2000/svg">
<g id="ep:right">
<path id="Vector" d="M11.793 8.00002H2.5C2.36739 8.00002 2.24021 8.0527 2.14645 8.14647C2.05268 8.24024 2 8.36741 2 8.50002C2 8.63263 2.05268 8.75981 2.14645 8.85357C2.24021 8.94734 2.36739 9.00002 2.5 9.00002H11.793L8.146 12.646C8.05211 12.7399 7.99937 12.8672 7.99937 13C7.99937 13.1328 8.05211 13.2601 8.146 13.354C8.23989 13.4479 8.36722 13.5007 8.5 13.5007C8.63278 13.5007 8.76011 13.4479 8.854 13.354L13.354 8.85402C13.4006 8.80758 13.4375 8.7524 13.4627 8.69165C13.4879 8.63091 13.5009 8.56579 13.5009 8.50002C13.5009 8.43425 13.4879 8.36913 13.4627 8.30839C13.4375 8.24764 13.4006 8.19247 13.354 8.14602L8.854 3.64602C8.76011 3.55213 8.63278 3.49939 8.5 3.49939C8.36722 3.49939 8.23989 3.55213 8.146 3.64602C8.05211 3.73991 7.99937 3.86725 7.99937 4.00002C7.99937 4.1328 8.05211 4.26013 8.146 4.35402L11.793 8.00002Z" fill="#F83E55"/>
</g>
</svg>
