<svg width="24" height="24" viewBox="0 0 24 24" fill="none" xmlns="http://www.w3.org/2000/svg">
<g id="mingcute:right-fill">
<g id="Group">
<path id="Vector" fill-rule="evenodd" clip-rule="evenodd" d="M10.9399 16.0599C11.2212 16.3408 11.6024 16.4986 11.9999 16.4986C12.3974 16.4986 12.7787 16.3408 13.0599 16.0599L18.7179 10.4039C18.9992 10.1225 19.1571 9.74089 19.157 9.34304C19.1569 8.94518 18.9988 8.56365 18.7174 8.28239C18.436 8.00113 18.0544 7.84317 17.6566 7.84326C17.2587 7.84336 16.8772 8.00149 16.5959 8.28289L11.9999 12.8789L7.40391 8.28289C7.12114 8.00952 6.7423 7.85814 6.34901 7.86137C5.95571 7.8646 5.57941 8.02218 5.30117 8.30016C5.02292 8.57815 4.86499 8.95429 4.86139 9.34759C4.85779 9.74088 5.0088 10.1199 5.28191 10.4029L10.9389 16.0609L10.9399 16.0599Z" fill="#2E2E2E"/>
</g>
</g>
</svg>
